<?xml version="1.0" encoding="utf-8"?>
<!-- Generator: Adobe Illustrator 16.0.0, SVG Export Plug-In . SVG Version: 6.00 Build 0)  -->
<!DOCTYPE svg PUBLIC "-//W3C//DTD SVG 1.1//EN" "http://www.w3.org/Graphics/SVG/1.1/DTD/svg11.dtd">
<svg version="1.1" id="Layer_1" xmlns="http://www.w3.org/2000/svg" xmlns:xlink="http://www.w3.org/1999/xlink" x="0px" y="0px"
	 width="1045.875px" height="824.57px" viewBox="0 0 1045.875 824.57" enable-background="new 0 0 1045.875 824.57"
	 xml:space="preserve">
<path fill="#FFFFFF" d="M645.985,498.648L420.342,273.003c-1.509-1.509-3.59-2.301-5.714-2.196c-2.13,0.111-4.114,1.119-5.458,2.774
	c-0.419,0.517-10.287,12.898-11,33.927c-0.915,27.041,12.939,55.071,41.179,83.311l56.521,56.521
	c4.873,4.873,11.353,7.558,18.245,7.558c6.893,0,13.371-2.685,18.243-7.558c0.388-0.388,0.829-0.468,1.133-0.468
	c0.302,0,0.744,0.082,1.132,0.468l9.135,9.136c0.351,0.35,0.207,1.252-0.121,1.959c-4.457,9.75-2.359,21.396,5.225,28.979
	l54.18,54.181c5.92,5.921,13.696,8.88,21.473,8.88c7.777,0,15.555-2.959,21.474-8.88
	C657.826,529.754,657.826,510.488,645.985,498.648z M635.334,530.941c-5.966,5.968-15.674,5.968-21.641,0l-54.18-54.181
	c-3.157-3.155-4.031-8.002-2.176-12.06c3.039-6.649,1.892-14.059-2.93-18.879l-9.135-9.135c-3.146-3.146-7.334-4.882-11.785-4.882
	c-4.452,0-8.637,1.735-11.785,4.882c-2.027,2.028-4.724,3.146-7.591,3.146s-5.563-1.117-7.592-3.146l-56.519-56.519
	c-43.738-43.738-38.943-75.608-33.284-89.483L635.334,509.3C641.301,515.269,641.301,524.976,635.334,530.941z M652.801,288.491
	c-2.94-2.941-7.711-2.941-10.65,0l-48.072,48.073c-2.943,2.941-2.943,7.711,0,10.653c1.471,1.471,3.398,2.207,5.325,2.207
	s3.854-0.735,5.326-2.207l48.071-48.074C655.742,296.202,655.742,291.433,652.801,288.491z M632.336,261.877
	c-2.94-2.942-7.711-2.942-10.65,0l-49.002,49.002c-7.514,7.512-11.946,17.056-12.164,26.187l-0.338,14.018l-13.654,13.656
	c-2.941,2.941-2.941,7.711,0,10.651c1.471,1.471,3.396,2.207,5.325,2.207c1.928,0,3.854-0.736,5.325-2.207l15.787-15.787
	c1.369-1.368,2.157-3.211,2.205-5.146l0.408-17.032c0.125-5.221,3.023-11.164,7.756-15.896l49.002-49.001
	C635.278,269.587,635.278,264.817,632.336,261.877z M503.567,470.019c-2.94-2.941-7.71-2.941-10.651,0l-60.263,60.264
	c-2.891,2.892-6.733,4.481-10.821,4.481c-4.087,0-7.93-1.593-10.82-4.481c-2.891-2.891-4.482-6.733-4.482-10.82
	c0-4.088,1.592-7.932,4.482-10.82l58.171-58.173c2.941-2.94,2.941-7.711,0-10.651c-2.942-2.94-7.712-2.94-10.652,0L400.36,497.99
	c-5.736,5.736-8.895,13.361-8.895,21.474s3.16,15.736,8.895,21.473s13.362,8.896,21.473,8.896c8.111,0,15.736-3.159,21.473-8.896
	l60.263-60.263C506.508,477.73,506.508,472.96,503.567,470.019z M680.545,310.086c-2.943-2.942-7.713-2.942-10.652,0l-49,49
	c-4.654,4.655-10.621,7.362-16.055,7.305l-17.705-0.271c-2.019-0.028-4.002,0.765-5.44,2.205l-15.788,15.789
	c-2.941,2.941-2.941,7.711,0,10.651c1.471,1.47,3.396,2.206,5.325,2.206c1.928,0,3.854-0.734,5.325-2.206l13.535-13.534l14.521,0.22
	c9.54,0.146,19.347-4.126,26.935-11.715l49-49C683.486,317.796,683.486,313.027,680.545,310.086z M691.924,242.463
	c-43.912-43.915-102.301-68.099-164.404-68.099c-62.104,0-120.491,24.184-164.404,68.099
	c-43.914,43.915-68.099,102.301-68.099,164.404c0,62.104,24.184,120.492,68.099,164.405c43.915,43.914,102.301,68.1,164.404,68.1
	c62.104,0,120.492-24.186,164.404-68.1c43.914-43.915,68.1-102.301,68.1-164.405S735.838,286.376,691.924,242.463z M681.272,560.62
	c-41.069,41.07-95.673,63.688-153.753,63.688S414.836,601.69,373.767,560.62c-41.068-41.068-63.687-95.673-63.687-153.752
	c0-58.079,22.619-112.683,63.687-153.752c41.069-41.068,95.673-63.687,153.752-63.687c58.08,0,112.684,22.618,153.753,63.687
	c41.069,41.069,63.687,95.672,63.687,153.752C744.959,464.949,722.34,519.55,681.272,560.62z"/>
</svg>
