<?xml version="1.0" encoding="utf-8"?>
<!-- Generator: Adobe Illustrator 16.0.0, SVG Export Plug-In . SVG Version: 6.00 Build 0)  -->
<!DOCTYPE svg PUBLIC "-//W3C//DTD SVG 1.1//EN" "http://www.w3.org/Graphics/SVG/1.1/DTD/svg11.dtd">
<svg version="1.1" id="Layer_1" xmlns="http://www.w3.org/2000/svg" xmlns:xlink="http://www.w3.org/1999/xlink" x="0px" y="0px"
	 width="1045.875px" height="824.569px" viewBox="-433.875 0 1045.875 824.569"
	 enable-background="new -433.875 0 1045.875 824.569" xml:space="preserve">
<linearGradient id="SVGID_1_" gradientUnits="userSpaceOnUse" x1="84.6357" y1="18.0034" x2="84.6357" y2="483.0112">
	<stop  offset="0" style="stop-color:#FAD961"/>
	<stop  offset="1" style="stop-color:#F76B1C"/>
</linearGradient>
<path fill="url(#SVGID_1_)" d="M203.102,342.287L-22.541,116.643c-1.509-1.509-3.59-2.301-5.714-2.196
	c-2.13,0.111-4.114,1.119-5.458,2.774c-0.419,0.517-10.287,12.898-11,33.927c-0.915,27.041,12.939,55.071,41.179,83.311
	l56.521,56.521c4.873,4.873,11.353,7.557,18.245,7.557c6.892,0,13.371-2.684,18.243-7.557c0.388-0.388,0.829-0.468,1.133-0.468
	c0.302,0,0.744,0.082,1.132,0.468l9.135,9.135c0.35,0.35,0.206,1.252-0.121,1.959c-4.458,9.75-2.36,21.397,5.224,28.98l54.18,54.181
	c5.92,5.92,13.696,8.88,21.473,8.88c7.777,0,15.554-2.96,21.473-8.88C214.943,373.394,214.943,354.128,203.102,342.287z
	 M192.451,374.581c-5.966,5.967-15.674,5.967-21.641,0l-54.18-54.181c-3.157-3.156-4.031-8.002-2.175-12.06
	c3.039-6.649,1.891-14.059-2.93-18.878l-9.135-9.135c-3.147-3.147-7.334-4.882-11.785-4.882c-4.452,0-8.637,1.735-11.785,4.882
	c-2.028,2.028-4.724,3.145-7.591,3.145s-5.563-1.117-7.592-3.145L7.118,223.808c-43.738-43.738-38.943-75.608-33.284-89.483
	L192.451,352.94C198.418,358.908,198.418,368.615,192.451,374.581z M209.918,132.131c-2.941-2.941-7.712-2.941-10.651,0
	l-48.072,48.073c-2.943,2.941-2.943,7.711,0,10.653c1.47,1.471,3.398,2.207,5.325,2.207s3.855-0.735,5.326-2.207l48.072-48.074
	C212.859,139.842,212.859,135.072,209.918,132.131z M189.453,105.517c-2.941-2.942-7.711-2.942-10.651,0L129.8,154.519
	c-7.513,7.512-11.946,17.056-12.164,26.187l-0.337,14.018l-13.655,13.656c-2.942,2.941-2.942,7.711,0,10.651
	c1.471,1.471,3.397,2.207,5.325,2.207s3.855-0.736,5.326-2.207l15.787-15.787c1.368-1.368,2.157-3.211,2.204-5.146l0.409-17.032
	c0.125-5.221,3.024-11.164,7.756-15.896l49.002-49.001C192.395,113.227,192.395,108.457,189.453,105.517z M60.684,313.659
	c-2.94-2.941-7.71-2.941-10.651,0l-60.263,60.263c-2.891,2.892-6.733,4.482-10.821,4.482c-4.087,0-7.93-1.593-10.82-4.482
	c-2.891-2.891-4.482-6.733-4.482-10.82c0-4.088,1.592-7.931,4.482-10.82L26.3,294.109c2.941-2.941,2.941-7.711,0-10.651
	c-2.942-2.941-7.712-2.941-10.652,0l-58.171,58.171c-5.736,5.736-8.895,13.362-8.895,21.474c0,8.112,3.16,15.737,8.895,21.473
	s13.362,8.895,21.473,8.895s15.736-3.159,21.473-8.895l60.263-60.263C63.625,321.369,63.625,316.6,60.684,313.659z M237.661,153.726
	c-2.942-2.942-7.712-2.942-10.651,0l-49.001,49c-4.654,4.655-10.621,7.362-16.054,7.305l-17.706-0.27
	c-2.018-0.028-4.001,0.765-5.44,2.205l-15.788,15.789c-2.942,2.941-2.942,7.711,0,10.651c1.47,1.47,3.397,2.206,5.325,2.206
	s3.855-0.734,5.326-2.206l13.534-13.534l14.521,0.22c9.54,0.146,19.346-4.126,26.934-11.715l49.001-49
	C240.603,161.436,240.603,156.667,237.661,153.726z M249.04,86.103c-43.912-43.915-102.3-68.099-164.404-68.099
	c-62.104,0-120.491,24.184-164.404,68.099c-43.914,43.915-68.099,102.301-68.099,164.404c0,62.104,24.184,120.492,68.099,164.404
	c43.915,43.914,102.301,68.1,164.404,68.1c62.104,0,120.492-24.185,164.404-68.1c43.914-43.915,68.1-102.3,68.1-164.404
	C317.14,188.403,292.955,130.016,249.04,86.103z M238.389,404.26c-41.069,41.069-95.672,63.687-153.753,63.687
	c-58.08,0-112.683-22.617-153.752-63.687c-41.068-41.069-63.687-95.673-63.687-153.753c0-58.079,22.619-112.683,63.687-153.752
	c41.069-41.068,95.673-63.687,153.752-63.687c58.08,0,112.684,22.618,153.753,63.687c41.069,41.069,63.687,95.672,63.687,153.752
	C302.075,308.588,279.457,363.19,238.389,404.26z"/>
<text transform="matrix(1 0 0 1 -288.9985 721.9131)" fill="#F76B1C" font-family="'Raleway-SemiBold'" font-size="152.6299">FOODMAP</text>
</svg>
